ply
format ascii 1.0
comment VCGLIB generated
element vertex 55
property float x
property float y
property float z
property float nx
property float ny
property float nz
element face 99
property list uchar int vertex_indices
end_header
0.101069 0.0293723 -0.192999 0.216216 0.0778797 0.973235 
0.194167 -0.0327222 -0.190275 0.973811 -0.105718 -0.201283 
0.189271 -0.0426243 -0.155118 0.876761 -0.038697 0.479367 
0.1042 0.055 -0.1976 0.843492 0.154145 0.514548 
0.118137 0.0901133 -0.219205 0.541639 -0.390388 0.744463 
0.104614 0.0864187 -0.123288 0.552711 0.339566 -0.761055 
0.0987146 0.0681541 -0.161351 0.848318 0.367036 -0.38163 
0.0982781 0.0506903 -0.172974 0.985123 0.171415 0.0122212 
0.1282 0.1001 -0.2233 0.142855 -0.985055 0.0962198 
0.140199 0.096051 -0.105104 0.387454 -0.016594 -0.92174 
0.125858 0.0804171 -0.123045 0.49662 0.832387 -0.245969 
0.1286 0.0551 -0.1286 0.968573 -0.134692 0.209105 
0.110914 0.0667353 -0.14319 0.747583 0.0914403 -0.657844 
0.124208 0.0442273 -0.220304 0.521678 0.0140104 0.853027 
0.103188 0.00181806 -0.153785 -0.600445 0.466315 -0.649628 
0.167226 0.0990282 -0.200819 -0.296613 -0.954934 -0.0110515 
0.145044 0.088806 -0.132237 -0.64049 -0.332939 0.692043 
0.1923 0.103 -0.1945 0.94619 -0.249712 0.205837 
0.1923 0.0768 -0.1542 -0.755107 -0.65547 0.0131595 
0.149464 0.0494228 -0.124893 0.127703 -0.0560723 0.990226 
0.144145 0.00920528 -0.123888 0.0843469 0.00817286 0.996403 
0.185546 -0.0211331 -0.207873 0.800674 -0.0653145 -0.595529 
0.196677 0.0256949 -0.181443 0.999643 -0.0264685 0.00358865 
0.0970581 -0.046399 -0.178105 -0.998775 -0.0242559 -0.0431201 
0.196274 0.0990843 -0.172355 0.812164 -0.570965 -0.119952 
0.198963 0.0969181 -0.125971 -0.433657 0.20252 -0.878025 
0.18326 0.105617 -0.136512 -0.95078 -0.303583 0.0620828 
0.173196 0.0743796 -0.133341 0.0434054 0.998156 0.0424426 
0.193428 0.0649488 -0.200685 0.943911 -0.290219 0.157497 
0.180102 0.03541 -0.216658 0.974465 -0.104934 -0.19851 
0.178359 0.0135292 -0.138185 0.71418 -0.0289525 0.699363 
0.159064 -0.0484443 -0.223883 0.858993 -0.0775999 -0.506073 
0.1093 0.1072 -0.2213 0.603474 -0.00515748 0.797366 
0.0775798 0.0965427 -0.189893 0.908802 -0.375179 0.182537 
0.0844 0.0821 -0.1884 0.809105 0.430748 0.399757 
0.100528 0.113198 -0.192281 -0.606039 -0.794341 0.0416934 
0.101027 0.114787 -0.164769 -0.187206 -0.980965 0.0515887 
0.083467 0.105122 -0.142005 0.878423 -0.337575 -0.338255 
0.0855432 0.0752169 -0.154979 0.840469 0.472334 -0.265541 
0.193251 0.0577089 -0.15157 0.909149 0.0173939 0.416108 
0.103883 0.112977 -0.132432 -0.171746 -0.984122 -0.0448099 
0.118653 0.0810935 -0.155658 -0.719929 -0.653137 0.234764 
0.174526 0.099795 -0.160298 -0.807188 0.14722 -0.571641 
0.167593 0.089962 -0.105461 -0.0406949 0.912088 -0.40797 
0.177798 0.105604 -0.21653 -0.555566 -0.305032 0.773499 
0.153025 -0.0449752 -0.127422 0.292086 -0.0846784 0.952636 
0.114055 0.0861449 -0.191971 -0.416497 -0.906898 -0.0637772 
0.156635 0.106864 -0.121467 -0.435939 0.75725 0.486344 
0.1431 0.0865 -0.2015 0.225538 -0.8389 -0.495358 
0.146283 0.0844863 -0.226842 -0.0555031 -0.133848 0.989446 
0.147083 0.0260327 -0.225389 0.251663 0.0548209 0.966261 
0.1162 -0.0138 -0.139 0.274913 0.00818203 0.961434 
0.178422 0.0999437 -0.179578 -0.0653467 -0.884789 0.461388 
0.117238 -0.0376578 -0.216909 0.0734638 -0.0128151 0.997216 
0.116269 -0.0437269 -0.137781 -0.629313 -0.0740501 0.773616 
3 35 41 36 
3 3 4 46 
3 4 46 35 
3 41 35 46 
3 40 16 47 
3 4 13 49 
3 10 11 12 
3 14 6 12 
3 17 24 28 
3 24 18 26 
3 20 39 19 
3 45 20 54 
3 2 22 30 
3 16 47 42 
3 10 43 27 
3 27 10 19 
3 18 25 26 
3 27 43 25 
3 39 27 25 
3 39 18 25 
3 39 27 19 
3 32 33 34 
3 32 35 33 
3 37 5 38 
3 39 24 18 
3 21 31 29 
3 36 37 33 
3 32 4 35 
3 3 4 32 
3 41 40 36 
3 10 12 41 
3 4 0 13 
3 24 52 17 
3 42 52 24 
3 42 24 26 
3 52 28 17 
3 29 28 44 
3 39 30 22 
3 21 29 22 
3 36 40 37 
3 32 34 3 
3 5 37 40 
3 6 38 5 
3 34 6 7 
3 38 6 34 
3 6 5 12 
3 19 10 11 
3 49 13 50 
3 51 12 11 
3 51 19 11 
3 12 51 14 
3 13 53 50 
3 54 51 14 
3 23 0 53 
3 14 23 54 
3 29 31 50 
3 28 39 22 
3 28 22 29 
3 36 33 35 
3 34 7 3 
3 5 9 10 
3 14 7 6 
3 14 0 7 
3 15 49 44 
3 9 43 10 
3 15 44 28 
3 28 52 15 
3 43 26 47 
3 19 51 20 
3 26 25 43 
3 39 28 24 
3 39 20 30 
3 30 20 45 
3 22 1 21 
3 2 1 22 
3 31 21 1 
3 33 38 34 
3 33 37 38 
3 48 4 8 
3 48 46 4 
3 40 41 16 
3 4 49 8 
3 5 40 9 
3 5 10 12 
3 4 3 0 
3 3 7 0 
3 8 49 15 
3 15 48 8 
3 47 9 40 
3 13 0 53 
3 14 0 23 
3 47 26 42 
3 9 43 47 
3 49 29 44 
3 15 52 42 
3 50 29 49 
3 31 50 53 
3 54 20 51 
3 2 30 45 
