ply
format ascii 1.0
comment VCGLIB generated
element vertex 833
property float x
property float y
property float z
property float nx
property float ny
property float nz
element face 0
property list uchar int vertex_indices
end_header
0.016981 0.077374 -0.30781 -8.51791e-10 -1 9.93756e-10 
-0.096833 0.170886 -0.30781 -0.980582 -0.193524 -0.0317531 
-0.094646 0.170886 -0.285581 -0.967969 -0.193534 0.159941 
-0.088169 0.170886 -0.264206 -0.918227 -0.193553 0.345538 
-0.077652 0.170886 -0.244507 -0.833241 -0.193575 0.517917 
-0.063497 0.170885 -0.22724 -0.716224 -0.193617 0.670474 
-0.04625 0.170885 -0.21307 -0.571629 -0.193659 0.797331 
-0.026574 0.170885 -0.202541 -0.404997 -0.193695 0.893566 
-0.005223 0.170885 -0.196057 -0.222717 -0.193731 0.95544 
0.016981 0.170885 -0.193867 -0.0318315 -0.193736 0.980537 
0.039185 0.170885 -0.196057 0.160302 -0.193738 0.967868 
0.060535 0.170885 -0.202541 0.346199 -0.193717 0.917943 
0.080212 0.170885 -0.21307 0.51875 -0.193683 0.832698 
0.097459 0.170885 -0.22724 0.671282 -0.193637 0.715461 
0.111613 0.170885 -0.244507 0.797957 -0.193587 0.570778 
0.122131 0.170885 -0.264206 0.893937 -0.193557 0.404243 
0.128607 0.170885 -0.285581 0.955593 -0.193527 0.222237 
0.130794 0.170885 -0.30781 0.980583 -0.193517 0.0317603 
0.128607 0.170885 -0.330039 0.967972 -0.19352 -0.159937 
0.122131 0.170885 -0.351414 0.918232 -0.193547 -0.345527 
0.111613 0.170885 -0.371113 0.833235 -0.193575 -0.517926 
0.097459 0.170885 -0.388379 0.716229 -0.193618 -0.670468 
0.080212 0.170885 -0.40255 0.571628 -0.193668 -0.79733 
0.060535 0.170885 -0.413079 0.404983 -0.193703 -0.89357 
0.039185 0.170885 -0.419563 0.222711 -0.193722 -0.955443 
0.016981 0.170886 -0.421752 0.0318291 -0.193743 -0.980536 
-0.005223 0.170886 -0.419563 -0.160285 -0.19373 -0.967873 
-0.026574 0.170886 -0.413079 -0.346206 -0.193702 -0.917944 
-0.04625 0.170886 -0.40255 -0.518757 -0.193672 -0.832696 
-0.063497 0.170886 -0.388379 -0.671279 -0.193632 -0.715465 
-0.077652 0.170886 -0.371113 -0.797952 -0.193588 -0.570785 
-0.088169 0.170886 -0.351414 -0.893937 -0.193556 -0.404243 
-0.094646 0.170886 -0.330039 -0.955586 -0.193541 -0.222255 
-0.090229 0.149092 -0.30781 -0.925043 -0.379844 0.00369192 
-0.088169 0.149092 -0.28687 -0.906588 -0.379851 0.183881 
-0.082068 0.149092 -0.266736 -0.853344 -0.379887 0.357057 
-0.072161 0.149092 -0.24818 -0.767335 -0.379947 0.516563 
-0.058828 0.149092 -0.231915 -0.651818 -0.380022 0.65629 
-0.042582 0.149092 -0.218567 -0.511217 -0.380088 0.770838 
-0.024047 0.149092 -0.208648 -0.350878 -0.380153 0.855785 
-0.003935 0.149092 -0.202541 -0.177018 -0.380194 0.907809 
0.016981 0.149092 -0.200478 0.00369671 -0.380213 0.924892 
0.037896 0.149092 -0.202541 0.184257 -0.380189 0.906369 
0.058008 0.149092 -0.208648 0.357695 -0.380148 0.852961 
0.076543 0.149092 -0.218567 0.517337 -0.38009 0.766743 
0.09279 0.149092 -0.231915 0.65703 -0.380017 0.651075 
0.106123 0.149092 -0.24818 0.771424 -0.379954 0.510431 
0.11603 0.149092 -0.266736 0.85616 -0.37989 0.350247 
0.122131 0.149092 -0.28687 0.908025 -0.379847 0.176655 
0.124191 0.149092 -0.30781 0.925045 -0.37984 -0.00368411 
0.122131 0.149092 -0.328749 0.906585 -0.379858 -0.18388 
0.11603 0.149092 -0.348884 0.853342 -0.379897 -0.357052 
0.106123 0.149092 -0.36744 0.767332 -0.379952 -0.516563 
0.09279 0.149092 -0.383705 0.651812 -0.380029 -0.656292 
0.076543 0.149092 -0.397053 0.511191 -0.380109 -0.770844 
0.058008 0.149092 -0.406971 0.350886 -0.380154 -0.855781 
0.037896 0.149092 -0.413079 0.17701 -0.380188 -0.907813 
0.016981 0.149092 -0.415141 -0.00368975 -0.38019 -0.924901 
-0.003935 0.149092 -0.413079 -0.184253 -0.380179 -0.906375 
-0.024047 0.149092 -0.406971 -0.357701 -0.380142 -0.852961 
-0.042582 0.149092 -0.397053 -0.517346 -0.380085 -0.766739 
-0.058828 0.149092 -0.383705 -0.657029 -0.380022 -0.651073 
-0.072161 0.149092 -0.36744 -0.771424 -0.379951 -0.510434 
-0.082068 0.149092 -0.348884 -0.856164 -0.379889 -0.35024 
-0.088169 0.149092 -0.328749 -0.908023 -0.379848 -0.176662 
-0.079505 0.129006 -0.30781 -0.834138 -0.551529 0.00534825 
-0.077652 0.129006 -0.288965 -0.817092 -0.551548 0.167796 
-0.072161 0.129006 -0.270844 -0.768688 -0.551593 0.323827 
-0.063245 0.129006 -0.254144 -0.690752 -0.551667 0.467467 
-0.051245 0.129006 -0.239506 -0.586276 -0.551746 0.593175 
-0.036624 0.129006 -0.227493 -0.459221 -0.551833 0.69613 
-0.019943 0.129006 -0.218567 -0.314465 -0.551907 0.772341 
-0.001843 0.129006 -0.21307 -0.157606 -0.551944 0.818852 
0.016981 0.129006 -0.211214 0.00536924 -0.551966 0.83385 
0.035804 0.129006 -0.21307 0.168105 -0.551941 0.816763 
0.053905 0.129006 -0.218567 0.324377 -0.551895 0.768239 
0.070586 0.129006 -0.227493 0.468127 -0.551821 0.690181 
0.085207 0.129006 -0.239506 0.59385 -0.551747 0.585591 
0.097206 0.129006 -0.254144 0.696701 -0.551662 0.458561 
0.106123 0.129006 -0.270844 0.772778 -0.55159 0.313947 
0.111613 0.129006 -0.288965 0.819177 -0.551552 0.15729 
0.113467 0.129006 -0.30781 0.834137 -0.551531 -0.00534835 
0.111613 0.129006 -0.326655 0.817093 -0.551546 -0.167798 
0.106123 0.129006 -0.344775 0.768685 -0.551597 -0.323828 
0.097206 0.129006 -0.361476 0.690751 -0.551672 -0.467462 
0.085207 0.129006 -0.376113 0.58626 -0.551757 -0.593181 
0.070586 0.129006 -0.388126 0.459229 -0.551832 -0.696125 
0.053905 0.129006 -0.397053 0.314489 -0.551894 -0.77234 
0.035804 0.129006 -0.40255 0.157593 -0.551947 -0.818853 
0.016981 0.129006 -0.404406 -0.00535452 -0.551959 -0.833854 
-0.001843 0.129006 -0.40255 -0.168119 -0.551948 -0.816755 
-0.019943 0.129006 -0.397053 -0.32438 -0.551903 -0.768232 
-0.036624 0.129006 -0.388126 -0.468139 -0.55184 -0.690158 
-0.051245 0.129006 -0.376113 -0.593833 -0.551744 -0.585612 
-0.063245 0.129006 -0.361476 -0.696703 -0.55166 -0.45856 
-0.072161 0.129006 -0.344775 -0.772779 -0.551591 -0.313941 
-0.077652 0.129006 -0.326655 -0.819177 -0.55155 -0.157295 
-0.065074 0.111401 -0.30781 -0.712035 -0.702111 0.00680171 
-0.063497 0.111401 -0.291784 -0.697034 -0.702134 0.145438 
-0.058828 0.111401 -0.276373 -0.655286 -0.702174 0.278483 
-0.051245 0.111401 -0.262171 -0.588358 -0.702235 0.400874 
-0.041041 0.111401 -0.249722 -0.49881 -0.702316 0.507879 
-0.028606 0.111401 -0.239506 -0.390065 -0.702396 0.59539 
-0.01442 0.111401 -0.231915 -0.266316 -0.702457 0.660022 
0.000973 0.111401 -0.22724 -0.132294 -0.702502 0.699277 
0.016981 0.111401 -0.225662 0.00682332 -0.702517 0.711635 
0.032989 0.111401 -0.22724 0.145676 -0.702498 0.696617 
0.048382 0.111401 -0.231915 0.278917 -0.702458 0.654796 
0.062568 0.111401 -0.239506 0.401406 -0.702389 0.587812 
0.075002 0.111401 -0.249722 0.508457 -0.702308 0.498232 
0.085207 0.111401 -0.262171 0.595923 -0.702225 0.389559 
0.09279 0.111401 -0.276373 0.6605 -0.70217 0.265891 
0.097459 0.111401 -0.291784 0.699699 -0.702123 0.132077 
0.099036 0.111401 -0.30781 0.712038 -0.702107 -0.0068099 
0.097459 0.111401 -0.323836 0.697041 -0.702127 -0.145436 
0.09279 0.111401 -0.339246 0.65528 -0.702175 -0.278495 
0.085207 0.111401 -0.353449 0.588351 -0.702241 -0.400875 
0.075002 0.111401 -0.365897 0.498807 -0.702314 -0.507885 
0.062568 0.111401 -0.376113 0.390094 -0.702385 -0.595384 
0.048382 0.111401 -0.383705 0.26631 -0.70246 -0.660022 
0.032989 0.111401 -0.388379 0.132296 -0.702504 -0.699275 
0.016981 0.111401 -0.389958 -0.00682341 -0.702518 -0.711634 
0.000973 0.111401 -0.388379 -0.145676 -0.7025 -0.696615 
-0.01442 0.111401 -0.383705 -0.278927 -0.702452 -0.654799 
-0.028606 0.111401 -0.376113 -0.401419 -0.702377 -0.587817 
-0.041041 0.111401 -0.365897 -0.508445 -0.702303 -0.498251 
-0.051245 0.111401 -0.353449 -0.595928 -0.702237 -0.389529 
-0.058828 0.111401 -0.339246 -0.660494 -0.702169 -0.265907 
-0.063497 0.111401 -0.323836 -0.699698 -0.702127 -0.132066 
-0.047489 0.096953 -0.30781 -0.563993 -0.825741 0.00801481 
-0.04625 0.096953 -0.295218 -0.551608 -0.82575 0.117749 
-0.042582 0.096953 -0.28311 -0.518028 -0.825784 0.222997 
-0.036624 0.096953 -0.271951 -0.464537 -0.825837 0.319685 
-0.028606 0.096953 -0.262171 -0.393196 -0.825897 0.404093 
-0.018837 0.096953 -0.254144 -0.30675 -0.825951 0.47298 
-0.007691 0.096953 -0.24818 -0.208481 -0.826001 0.523697 
0.004403 0.096953 -0.244507 -0.102195 -0.826033 0.55428 
0.016981 0.096953 -0.243267 0.00801994 -0.826042 0.563551 
0.029558 0.096953 -0.244507 0.117936 -0.82603 0.551149 
0.041652 0.096953 -0.24818 0.223296 -0.825994 0.517564 
0.052799 0.096953 -0.254144 0.320077 -0.825946 0.464074 
0.062568 0.096953 -0.262171 0.404542 -0.825885 0.392759 
0.070586 0.096953 -0.271951 0.473446 -0.825829 0.306358 
0.076543 0.096953 -0.28311 0.524158 -0.825784 0.208179 
0.080212 0.096953 -0.295218 0.554722 -0.825753 0.102058 
0.081451 0.096953 -0.30781 0.563988 -0.825744 -0.00800835 
0.080212 0.096953 -0.320402 0.551592 -0.825758 -0.117773 
0.076543 0.096953 -0.332509 0.518018 -0.825791 -0.222995 
0.070586 0.096953 -0.343668 0.464546 -0.825837 -0.319673 
0.062568 0.096953 -0.353449 0.393213 -0.825892 -0.404087 
0.052799 0.096953 -0.361476 0.306742 -0.825955 -0.472977 
0.041652 0.096953 -0.36744 0.208475 -0.826002 -0.523697 
0.029558 0.096953 -0.371113 0.102206 -0.826028 -0.554285 
0.016981 0.096953 -0.372353 -0.0080283 -0.826039 -0.563556 
0.004403 0.096953 -0.371113 -0.117926 -0.826025 -0.55116 
-0.007691 0.096953 -0.36744 -0.223312 -0.825991 -0.517562 
-0.018837 0.096953 -0.361476 -0.320083 -0.825943 -0.464074 
-0.028606 0.096953 -0.353449 -0.404547 -0.825891 -0.392742 
-0.036624 0.096953 -0.343668 -0.473445 -0.82583 -0.306357 
-0.042582 0.096953 -0.332509 -0.524157 -0.825781 -0.208194 
-0.04625 0.096953 -0.320402 -0.55473 -0.825749 -0.102048 
-0.027427 0.086217 -0.30781 -0.397388 -0.917607 0.00890373 
-0.026574 0.086217 -0.299136 -0.388018 -0.917616 0.086156 
-0.024047 0.086217 -0.290796 -0.363733 -0.917636 0.160132 
-0.019943 0.086217 -0.28311 -0.325472 -0.917663 0.227953 
-0.01442 0.086217 -0.276373 -0.274718 -0.917695 0.286995 
-0.007691 0.086217 -0.270844 -0.213387 -0.917727 0.335026 
-1.3e-05 0.086217 -0.266736 -0.143863 -0.917751 0.370185 
0.008317 0.086217 -0.264206 -0.0687887 -0.917768 0.391115 
0.016981 0.086217 -0.263352 0.00890906 -0.917773 0.397006 
0.025644 0.086217 -0.264206 0.0862841 -0.917765 0.387638 
0.033975 0.086217 -0.266736 0.160318 -0.917745 0.363376 
0.041652 0.086217 -0.270844 0.228212 -0.917721 0.325128 
0.048382 0.086217 -0.276373 0.287305 -0.917689 0.274413 
0.053905 0.086217 -0.28311 0.335383 -0.917658 0.213123 
0.058008 0.086217 -0.290796 0.370556 -0.917631 0.143673 
0.060535 0.086217 -0.299136 0.391488 -0.917614 0.068721 
0.061389 0.086217 -0.30781 0.397383 -0.91761 -0.00890354 
0.060535 0.086217 -0.316483 0.388011 -0.917616 -0.086185 
0.058008 0.086217 -0.324823 0.363741 -0.917635 -0.160117 
0.053905 0.086217 -0.332509 0.32548 -0.917665 -0.227934 
0.048382 0.086217 -0.339246 0.27471 -0.917697 -0.286995 
0.041652 0.086217 -0.344775 0.21339 -0.917728 -0.335023 
0.033975 0.086217 -0.348884 0.14387 -0.917752 -0.37018 
0.025644 0.086217 -0.351414 0.0687951 -0.91777 -0.391109 
0.016981 0.086217 -0.352268 -0.00891439 -0.917773 -0.397005 
0.008317 0.086217 -0.351414 -0.0862769 -0.917767 -0.387634 
-1.3e-05 0.086217 -0.348884 -0.160335 -0.917749 -0.36336 
-0.007691 0.086217 -0.344775 -0.228218 -0.917721 -0.325123 
-0.01442 0.086217 -0.339246 -0.287323 -0.917687 -0.274401 
-0.019943 0.086217 -0.332509 -0.335376 -0.917655 -0.213148 
-0.024047 0.086217 -0.324823 -0.370554 -0.917631 -0.143679 
-0.026574 0.086217 -0.316483 -0.391492 -0.917613 -0.0687041 
-0.005658 0.079606 -0.30781 -0.226986 -0.973852 0.00944367 
-0.005223 0.079606 -0.303388 -0.220777 -0.973856 0.0534905 
-0.003935 0.079606 -0.299136 -0.206088 -0.973863 0.095493 
-0.001843 0.079606 -0.295218 -0.18347 -0.973872 0.133834 
0.000973 0.079606 -0.291784 -0.153822 -0.973883 0.167004 
0.004403 0.079606 -0.288965 -0.118256 -0.973894 0.193769 
0.008317 0.079606 -0.28687 -0.0781294 -0.973903 0.213095 
0.012564 0.079606 -0.285581 -0.0350006 -0.973907 0.22423 
0.016981 0.079606 -0.285145 0.00945561 -0.973909 0.226741 
0.021397 0.079606 -0.285581 0.0535606 -0.973905 0.220545 
0.025644 0.079606 -0.28687 0.0956009 -0.973899 0.205864 
0.029558 0.079606 -0.288965 0.133978 -0.97389 0.183273 
0.032989 0.079606 -0.291784 0.167191 -0.973879 0.153647 
0.035804 0.079606 -0.295218 0.19399 -0.973868 0.118106 
0.037896 0.079606 -0.299136 0.213326 -0.973859 0.0780471 
0.039185 0.079606 -0.303388 0.224468 -0.973853 0.034983 
0.03962 0.079606 -0.30781 0.226985 -0.973852 -0.00945519 
0.039185 0.079606 -0.312231 0.220779 -0.973855 -0.0535094 
0.037896 0.079606 -0.316483 0.20609 -0.973863 -0.0954906 
0.035804 0.079606 -0.320402 0.183484 -0.973872 -0.133819 
0.032989 0.079606 -0.323836 0.15382 -0.973882 -0.167013 
0.029558 0.079606 -0.326655 0.118253 -0.973893 -0.193773 
0.025644 0.079606 -0.328749 0.0781265 -0.973902 -0.213098 
0.021397 0.079606 -0.330039 0.0350045 -0.973908 -0.224227 
0.016981 0.079606 -0.330474 -0.00945561 -0.973908 -0.226744 
0.012564 0.079606 -0.330039 -0.0535579 -0.973907 -0.220538 
0.008317 0.079606 -0.328749 -0.095608 -0.973898 -0.205867 
0.004403 0.079606 -0.326655 -0.133983 -0.973889 -0.183274 
0.000973 0.079606 -0.323836 -0.167196 -0.973877 -0.153651 
-0.001843 0.079606 -0.320402 -0.193984 -0.973868 -0.118118 
-0.003935 0.079606 -0.316483 -0.213328 -0.97386 -0.0780276 
-0.005223 0.079606 -0.312231 -0.224469 -0.973854 -0.0349612 
0.014573 0.079726 -0.308763 0.0657372 0.99766 -0.0188067 
0.014735 0.079726 -0.308247 0.0599974 0.997716 -0.0310488 
0.014999 0.079726 -0.307771 0.052118 0.997767 -0.0417689 
0.015354 0.079726 -0.307355 0.0425029 0.997813 -0.0506156 
0.015787 0.079726 -0.307013 0.0315916 0.997854 -0.0573508 
0.01628 0.079726 -0.306759 0.0197804 0.997889 -0.0618538 
0.016816 0.079726 -0.306602 0.00749806 0.997919 -0.064049 
0.017373 0.079726 -0.306549 -0.00489363 0.997942 -0.0639358 
0.01793 0.079726 -0.306602 -0.0169912 0.997959 -0.0615559 
0.018466 0.079726 -0.306759 -0.0284561 0.997969 -0.0569973 
0.018959 0.079726 -0.307013 -0.0389294 0.99797 -0.0503973 
0.019392 0.079726 -0.307355 -0.0480857 0.997963 -0.0419279 
0.019747 0.079726 -0.307771 -0.0556138 0.997946 -0.0318057 
0.020011 0.079726 -0.308247 -0.0612094 0.997918 -0.0203325 
0.020173 0.079726 -0.308763 -0.0646217 0.997879 -0.00786009 
0.020228 0.079726 -0.309299 -0.065646 0.99783 0.00518122 
0.020173 0.079726 -0.309836 -0.064164 0.99777 0.0183601 
0.020011 0.079726 -0.310351 -0.0601479 0.997704 0.0311269 
0.019747 0.079726 -0.310827 -0.0536575 0.997633 0.0429922 
0.019392 0.079726 -0.311244 -0.0448881 0.997562 0.05344 
0.018959 0.079726 -0.311586 -0.0341424 0.997493 0.0619814 
0.018466 0.079726 -0.31184 -0.0218014 0.997432 0.0682158 
0.01793 0.079726 -0.311996 -0.00839449 0.997383 0.0718046 
0.017373 0.079726 -0.312049 0.00555241 0.997349 0.0725512 
0.016816 0.079726 -0.311996 0.019411 0.997332 0.0703717 
0.01628 0.079726 -0.31184 0.0325926 0.997333 0.0653101 
0.015787 0.079726 -0.311586 0.0444734 0.99735 0.0575744 
0.015354 0.079726 -0.311244 0.0544983 0.997383 0.047507 
0.014999 0.079726 -0.310827 0.0622246 0.997428 0.0355709 
0.014735 0.079726 -0.310351 0.0673045 0.997482 0.0223663 
0.014573 0.079726 -0.309836 0.045725 0.998939 0.00556051 
0.014518 0.079726 -0.309299 0.0690148 0.997601 -0.00544819 
-0.096833 0.19355 -0.330474 -0.974127 -0.00141839 -0.225995 
-0.099062 0.19355 -0.30781 -0.999492 -0.00141835 -0.0318398 
-0.096833 0.19355 -0.285145 -0.986534 -0.00141854 0.163551 
-0.090229 0.19355 -0.263352 -0.935734 -0.00141872 0.352704 
-0.079505 0.19355 -0.243267 -0.84902 -0.0014192 0.528359 
-0.065074 0.19355 -0.225662 -0.72968 -0.00142009 0.683787 
-0.047489 0.19355 -0.211214 -0.582229 -0.0014208 0.813023 
-0.027427 0.19355 -0.200478 -0.412332 -0.00142165 0.911032 
-0.005658 0.19355 -0.193867 -0.226489 -0.00142206 0.974013 
0.016981 0.19355 -0.191635 -0.0319036 -0.00142233 0.99949 
0.03962 0.19355 -0.193867 0.163904 -0.00142307 0.986475 
0.061389 0.19355 -0.200478 0.353398 -0.00142323 0.935472 
0.081451 0.19355 -0.211214 0.52923 -0.00142294 0.848477 
0.099036 0.19355 -0.225662 0.684628 -0.00142288 0.728892 
0.113467 0.19355 -0.243267 0.813657 -0.00142282 0.581344 
0.124191 0.19355 -0.263352 0.911384 -0.00142279 0.411555 
0.130794 0.19355 -0.285145 0.974127 -0.00142287 0.225999 
0.133024 0.19355 -0.30781 0.999492 -0.0014228 0.0318393 
0.130794 0.19355 -0.330474 0.986534 -0.00142269 -0.163553 
0.124191 0.19355 -0.352268 0.935742 -0.00142271 -0.352682 
0.113467 0.19355 -0.372353 0.849019 -0.00142293 -0.52836 
0.099036 0.19355 -0.389958 0.729681 -0.00142321 -0.683787 
0.081451 0.19355 -0.404406 0.58222 -0.00142298 -0.81303 
0.061389 0.19355 -0.415141 0.412308 -0.0014228 -0.911044 
0.03962 0.19355 -0.421752 0.226503 -0.00142273 -0.974009 
0.016981 0.19355 -0.423985 0.0319183 -0.00142267 -0.999489 
-0.005658 0.19355 -0.421752 -0.163933 -0.00142178 -0.986471 
-0.027427 0.19355 -0.415141 -0.353385 -0.00142129 -0.935477 
-0.047489 0.19355 -0.404406 -0.529209 -0.00142109 -0.84849 
-0.065074 0.19355 -0.389958 -0.684628 -0.00142038 -0.728891 
-0.079505 0.19355 -0.372353 -0.813657 -0.00141932 -0.581344 
-0.090229 0.19355 -0.352268 -0.91138 -0.00141923 -0.411562 
-0.096829 1.72959 -0.330474 -0.986662 -0.0026511 -0.162762 
-0.099059 1.72959 -0.30781 -0.999465 -0.00265059 0.0326111 
-0.096829 1.72959 -0.285145 -0.973943 -0.00265105 0.226778 
-0.090226 1.72959 -0.263352 -0.911057 -0.0026523 0.412272 
-0.079502 1.72959 -0.243267 -0.813197 -0.00265409 0.581983 
-0.065071 1.72959 -0.225662 -0.684051 -0.00265657 0.729429 
-0.047486 1.72959 -0.211214 -0.52856 -0.00265933 0.848892 
-0.027424 1.72959 -0.200478 -0.352659 -0.00266209 0.935748 
-0.005655 1.72959 -0.193867 -0.163126 -0.00266502 0.986602 
0.016984 1.72959 -0.191635 0.0326918 -0.0026684 0.999462 
0.039623 1.72959 -0.193867 0.227256 -0.00267102 0.973831 
0.061392 1.72959 -0.200478 0.413049 -0.00267336 0.910705 
0.081454 1.72959 -0.211214 0.582868 -0.00267573 0.812562 
0.099039 1.72959 -0.225662 0.730217 -0.00267768 0.68321 
0.11347 1.72959 -0.243267 0.849433 -0.00267905 0.527689 
0.124194 1.72959 -0.263352 0.936014 -0.00267994 0.351954 
0.130797 1.72959 -0.285145 0.98666 -0.00268044 0.162774 
0.133027 1.72959 -0.30781 0.999464 -0.00268083 -0.0326262 
0.130797 1.72959 -0.330474 0.973947 -0.00268071 -0.226761 
0.124194 1.72959 -0.352268 0.911059 -0.00268028 -0.412266 
0.11347 1.72959 -0.372353 0.813197 -0.0026796 -0.581983 
0.099039 1.72959 -0.389958 0.684052 -0.00267811 -0.729429 
0.081454 1.72959 -0.404406 0.528538 -0.00267621 -0.848905 
0.061392 1.72959 -0.415141 0.352646 -0.00267455 -0.935753 
0.039623 1.72959 -0.421752 0.163154 -0.00267228 -0.986597 
0.016984 1.72959 -0.423985 -0.0327065 -0.00266895 -0.999461 
-0.005655 1.72959 -0.421752 -0.227271 -0.00266607 -0.973828 
-0.027424 1.72959 -0.415141 -0.413025 -0.00266314 -0.910716 
-0.047486 1.72959 -0.404406 -0.582859 -0.00265943 -0.812569 
-0.065071 1.72959 -0.389958 -0.730217 -0.0026564 -0.68321 
-0.079502 1.72959 -0.372353 -0.849433 -0.00265421 -0.52769 
-0.090226 1.72959 -0.352268 -0.936012 -0.0026521 -0.351957 
-0.100791 1.73311 -0.331267 -0.782834 -0.602318 -0.156152 
-0.103098 1.73311 -0.30781 -0.798329 -0.602221 -0.000593899 
-0.100791 1.73311 -0.284352 -0.783082 -0.602301 0.154973 
-0.093956 1.73311 -0.261797 -0.737716 -0.602492 0.304595 
-0.082857 1.73311 -0.241009 -0.663966 -0.602835 0.442424 
-0.067921 1.73311 -0.222788 -0.564697 -0.603253 0.563207 
-0.049721 1.73311 -0.207835 -0.44373 -0.603741 0.66227 
-0.028957 1.73311 -0.196724 -0.305751 -0.604294 0.735761 
-0.006427 1.73311 -0.189882 -0.156107 -0.604918 0.780836 
0.017004 1.73311 -0.187571 -0.0005984 -0.605495 0.795849 
0.040435 1.73311 -0.189882 0.154778 -0.606003 0.780259 
0.062965 1.73311 -0.196724 0.304013 -0.60649 0.734674 
0.083729 1.73311 -0.207835 0.441389 -0.606931 0.660917 
0.101929 1.73311 -0.222788 0.561681 -0.607294 0.561879 
0.116865 1.73311 -0.241009 0.660315 -0.607564 0.441418 
0.127964 1.73311 -0.261797 0.733587 -0.607732 0.304159 
0.134798 1.73311 -0.284352 0.778714 -0.607847 0.155325 
0.137106 1.73311 -0.30781 0.79404 -0.607865 0.000590705 
0.134798 1.73311 -0.331267 0.778951 -0.607841 -0.154156 
0.127964 1.73311 -0.353823 0.734053 -0.607714 -0.303067 
0.116865 1.73311 -0.374611 0.661002 -0.607519 -0.440451 
0.101929 1.73311 -0.392831 0.562549 -0.607233 -0.561076 
0.083729 1.73311 -0.407784 0.442383 -0.606941 -0.660243 
0.062965 1.73311 -0.418896 0.305099 -0.606556 -0.734169 
0.040435 1.73311 -0.425738 0.155935 -0.605999 -0.780032 
0.017004 1.73311 -0.428048 0.000592758 -0.60545 -0.795883 
-0.006427 1.73311 -0.425738 -0.154926 -0.604921 -0.781069 
-0.028957 1.73311 -0.418896 -0.304641 -0.604331 -0.736191 
-0.049721 1.73311 -0.407784 -0.442742 -0.603752 -0.66292 
-0.067921 1.73311 -0.392831 -0.563876 -0.603221 -0.564064 
-0.082857 1.73311 -0.374611 -0.663329 -0.602796 -0.443431 
-0.093956 1.73311 -0.353823 -0.737246 -0.602514 -0.305688 
-0.102072 1.73664 -0.331526 -0.952409 -0.238783 -0.189471 
-0.104405 1.73664 -0.30781 -0.970941 -0.239318 -0.000230568 
-0.102072 1.73664 -0.284093 -0.952401 -0.239169 0.189024 
-0.095162 1.73664 -0.261288 -0.897428 -0.238529 0.371116 
-0.08394 1.73664 -0.240271 -0.80809 -0.237308 0.539143 
-0.068839 1.73664 -0.221849 -0.687665 -0.235835 0.686658 
-0.050438 1.73664 -0.206731 -0.540642 -0.234457 0.807921 
-0.029445 1.73664 -0.195497 -0.372636 -0.233459 0.898131 
-0.006666 1.73664 -0.188579 -0.190121 -0.232945 0.953724 
0.017024 1.73664 -0.186243 -0.000210626 -0.233239 0.97242 
0.040713 1.73664 -0.188579 0.189631 -0.234477 0.953447 
0.063492 1.73664 -0.195497 0.371941 -0.236534 0.897615 
0.084486 1.73664 -0.206731 0.53963 -0.239189 0.80721 
0.102887 1.73664 -0.221849 0.68627 -0.242072 0.685882 
0.117988 1.73664 -0.240271 0.806284 -0.24489 0.538456 
0.129209 1.73664 -0.261288 0.895243 -0.247251 0.370683 
0.136119 1.73664 -0.284093 0.949905 -0.24893 0.188983 
0.138452 1.73664 -0.30781 0.968327 -0.249686 0.000223143 
0.136119 1.73664 -0.331526 0.949876 -0.249393 -0.188517 
0.129209 1.73664 -0.354331 0.895226 -0.248038 -0.370199 
0.117988 1.73664 -0.375348 0.806309 -0.245943 -0.537938 
0.102887 1.73664 -0.39377 0.686376 -0.243235 -0.685364 
0.084486 1.73664 -0.408889 0.539867 -0.240215 -0.806747 
0.063492 1.73664 -0.420123 0.372266 -0.237242 -0.897293 
0.040713 1.73664 -0.42704 0.190017 -0.234922 -0.95326 
0.017024 1.73664 -0.429376 0.00021736 -0.233332 -0.972397 
-0.006666 1.73664 -0.42704 -0.189706 -0.232519 -0.953911 
-0.029445 1.73664 -0.420123 -0.37231 -0.232585 -0.898493 
-0.050438 1.73664 -0.408889 -0.540435 -0.233374 -0.808373 
-0.068839 1.73664 -0.39377 -0.687544 -0.234705 -0.687165 
-0.08394 1.73664 -0.375349 -0.808039 -0.236322 -0.539652 
-0.095162 1.73664 -0.354331 -0.89742 -0.237793 -0.371606 
-0.102499 1.74017 -0.331598 -0.980576 0.0220233 -0.194897 
-0.104841 1.74017 -0.30781 -0.999746 0.0225147 1.46085e-05 
-0.102499 1.74017 -0.284022 -0.980552 0.022875 0.194923 
-0.095564 1.74017 -0.261148 -0.923714 0.0230135 0.382391 
-0.0843 1.74017 -0.240067 -0.831413 0.0227185 0.55519 
-0.069142 1.74017 -0.221589 -0.707151 0.0221007 0.706717 
-0.050672 1.74017 -0.206425 -0.555686 0.0211314 0.831124 
-0.0296 1.74017 -0.195157 -0.382797 0.0199452 0.923617 
-0.006735 1.74017 -0.188219 -0.195151 0.0185136 0.980598 
0.017044 1.74017 -0.185876 2.15759e-05 0.0169499 0.999856 
0.040822 1.74017 -0.188219 0.195195 0.015282 0.980645 
0.063687 1.74017 -0.195157 0.382859 0.013746 0.923704 
0.08476 1.74017 -0.206425 0.555782 0.0125553 0.831234 
0.10323 1.74017 -0.221589 0.707308 0.0117283 0.706808 
0.118388 1.74017 -0.240067 0.831596 0.0110587 0.555271 
0.129651 1.74017 -0.261148 0.923923 0.0107633 0.382428 
0.136587 1.74017 -0.284022 0.980756 0.0108346 0.194938 
0.138929 1.74017 -0.30781 0.999938 0.01118 -1.4559e-05 
0.136587 1.74017 -0.331598 0.980738 0.0117765 -0.194974 
0.129651 1.74017 -0.354472 0.923892 0.0124443 -0.38245 
0.118388 1.74017 -0.375553 0.831555 0.0132557 -0.555285 
0.10323 1.74017 -0.39403 0.707254 0.0140887 -0.70682 
0.08476 1.74017 -0.409194 0.555734 0.0149167 -0.831226 
0.063687 1.74017 -0.420462 0.382827 0.0156144 -0.923688 
0.040822 1.74017 -0.427401 0.195176 0.0162245 -0.980634 
0.017044 1.74017 -0.429744 -1.45689e-05 0.0168504 -0.999858 
-0.006735 1.74017 -0.427401 -0.195198 0.0175578 -0.980607 
-0.0296 1.74017 -0.420462 -0.382851 0.0183112 -0.923629 
-0.050672 1.74017 -0.409194 -0.555737 0.0189539 -0.831142 
-0.069142 1.74017 -0.39403 -0.707203 0.019609 -0.706739 
-0.0843 1.74017 -0.375553 -0.831466 0.0204426 -0.555199 
-0.095564 1.74017 -0.354472 -0.923765 0.0213362 -0.382366 
-0.101915 1.7437 -0.331503 -0.90305 0.390423 -0.179082 
-0.104246 1.7437 -0.30781 -0.92051 0.390718 0.000365475 
-0.101915 1.7437 -0.284117 -0.903026 0.390142 0.179817 
-0.095011 1.7437 -0.261334 -0.851213 0.388704 0.352627 
-0.083801 1.7437 -0.240337 -0.766848 0.386636 0.512306 
-0.068715 1.7437 -0.221934 -0.652888 0.384278 0.652738 
-0.050332 1.7437 -0.20683 -0.513557 0.381773 0.768445 
-0.029359 1.7437 -0.195607 -0.354006 0.379585 0.854749 
-0.006602 1.7437 -0.188696 -0.180446 0.37785 0.908113 
0.017064 1.7437 -0.186363 0.000355092 0.376735 0.926321 
0.04073 1.7437 -0.188696 0.181259 0.376417 0.908546 
0.063487 1.7437 -0.195607 0.355102 0.376862 0.855498 
0.08446 1.7437 -0.20683 0.515073 0.377734 0.769426 
0.102842 1.7437 -0.221934 0.654975 0.378895 0.653793 
0.117929 1.7437 -0.240337 0.769506 0.380096 0.513214 
0.129139 1.7437 -0.261334 0.854424 0.381105 0.353156 
0.136042 1.7437 -0.284117 0.906626 0.381717 0.17978 
0.138373 1.7437 -0.30781 0.924235 0.381823 -0.00036695 
0.136042 1.7437 -0.331503 0.90663 0.381354 -0.18053 
0.129139 1.7437 -0.354286 0.854416 0.380396 -0.353937 
0.117929 1.7437 -0.375282 0.769414 0.379185 -0.514025 
0.102843 1.7437 -0.393686 0.654757 0.377867 -0.654607 
0.08446 1.7437 -0.408789 0.514681 0.376764 -0.770164 
0.063487 1.7437 -0.420012 0.354565 0.376074 -0.856068 
0.04073 1.7437 -0.426923 0.180603 0.376046 -0.90883 
0.017064 1.7437 -0.429257 -0.000355187 0.376741 -0.926319 
-0.006602 1.7437 -0.426923 -0.181135 0.378203 -0.907829 
-0.029359 1.7437 -0.420012 -0.354576 0.380234 -0.854223 
-0.050332 1.7437 -0.408789 -0.513942 0.382637 -0.767758 
-0.068715 1.7437 -0.393686 -0.653125 0.385198 -0.651959 
-0.083801 1.7437 -0.375282 -0.76692 0.387581 -0.511483 
-0.095011 1.7437 -0.354286 -0.851237 0.389353 -0.351851 
-0.099552 1.74723 -0.331036 -0.678963 0.722742 -0.129047 
-0.101837 1.74723 -0.30781 -0.691082 0.722754 0.0057399 
-0.099552 1.74723 -0.284583 -0.676766 0.722702 0.140319 
-0.092785 1.74723 -0.262249 -0.636506 0.722629 0.269569 
-0.081795 1.74723 -0.241666 -0.571846 0.722497 0.388575 
-0.067006 1.74723 -0.223625 -0.485271 0.722234 0.492838 
-0.048985 1.74723 -0.208818 -0.379903 0.721989 0.578278 
-0.028425 1.74723 -0.197817 -0.259824 0.721671 0.641625 
-0.006116 1.74723 -0.191042 -0.129628 0.721229 0.68046 
0.017084 1.74723 -0.188754 0.00576802 0.720798 0.693121 
0.040284 1.74723 -0.191042 0.141126 0.72034 0.679112 
0.062593 1.74723 -0.197817 0.27122 0.719817 0.638987 
0.083153 1.74723 -0.208818 0.391023 0.719348 0.574143 
0.101174 1.74723 -0.223625 0.495862 0.718903 0.487134 
0.115963 1.74723 -0.241666 0.581687 0.718513 0.381285 
0.126953 1.74723 -0.262249 0.64515 0.718215 0.260671 
0.13372 1.74723 -0.284583 0.683742 0.71806 0.129952 
0.136005 1.74723 -0.30781 0.696016 0.718003 -0.0057809 
0.13372 1.74723 -0.331036 0.68149 0.718058 -0.141292 
0.126953 1.74723 -0.353371 0.640704 0.718242 -0.271342 
0.115963 1.74723 -0.373954 0.575245 0.718543 -0.390883 
0.101174 1.74723 -0.391995 0.487682 0.718916 -0.495303 
0.083153 1.74723 -0.406801 0.381418 0.719334 -0.580585 
0.062593 1.74723 -0.417803 0.260568 0.71979 -0.643434 
0.040284 1.74723 -0.424578 0.12982 0.720272 -0.681436 
0.017084 1.74723 -0.426866 -0.00577427 0.720779 -0.693141 
-0.006116 1.74723 -0.424578 -0.140943 0.721204 -0.678233 
-0.028425 1.74723 -0.417803 -0.270508 0.721594 -0.637282 
-0.048985 1.74723 -0.406801 -0.389493 0.721947 -0.571916 
-0.067006 1.74723 -0.391995 -0.493401 0.722225 -0.484713 
-0.081795 1.74723 -0.373954 -0.578267 0.722451 -0.37904 
-0.092785 1.74723 -0.353371 -0.640888 0.722638 -0.258953 
-0.096002 1.74945 -0.330334 -0.197903 0.979737 -0.0308103 
-0.098218 1.74945 -0.30781 -0.201344 0.979485 0.00839976 
-0.096002 1.74945 -0.285286 -0.197081 0.979222 0.0477776 
-0.089439 1.74945 -0.263628 -0.185143 0.978958 0.0858138 
-0.078782 1.74945 -0.243667 -0.16585 0.978702 0.120984 
-0.064441 1.74945 -0.226172 -0.139815 0.978468 0.151829 
-0.046965 1.74945 -0.211814 -0.107991 0.978266 0.177014 
-0.027027 1.74945 -0.201145 -0.0716401 0.978092 0.195456 
-0.005394 1.74945 -0.194575 -0.0321823 0.977968 0.206259 
0.017105 1.74945 -0.192357 0.00873641 0.977896 0.208907 
0.039603 1.74945 -0.194575 0.0493921 0.977872 0.203288 
0.061237 1.74945 -0.201145 0.0880626 0.977909 0.189577 
0.081174 1.74945 -0.211814 0.123128 0.977999 0.168397 
0.09865 1.74945 -0.226172 0.153144 0.978135 0.140707 
0.112992 1.74945 -0.243667 0.176908 0.978318 0.107689 
0.123649 1.74945 -0.263628 0.193531 0.978538 0.0707709 
0.130211 1.74945 -0.285286 0.202457 0.978784 0.0315159 
0.132427 1.74945 -0.30781 0.203447 0.979049 -0.00848764 
0.130211 1.74945 -0.330334 0.196624 0.97932 -0.047663 
0.123649 1.74945 -0.351992 0.182374 0.979589 -0.0845284 
0.112992 1.74945 -0.371952 0.161391 0.979843 -0.117735 
0.09865 1.74945 -0.389448 0.13456 0.980072 -0.146126 
0.081174 1.74945 -0.403806 0.102954 0.980267 -0.168751 
0.061237 1.74945 -0.414475 0.0677605 0.980424 -0.18487 
0.039603 1.74945 -0.421045 0.0302666 0.980538 -0.19398 
0.017105 1.74945 -0.423263 -0.00819063 0.9806 -0.195849 
-0.005394 1.74945 -0.421045 -0.0462657 0.980612 -0.190421 
-0.027027 1.74945 -0.414475 -0.0826366 0.980575 -0.17789 
-0.046965 1.74945 -0.403806 -0.116026 0.980487 -0.158691 
-0.064441 1.74945 -0.389448 -0.145244 0.980356 -0.133443 
-0.078782 1.74945 -0.371952 -0.169213 0.980183 -0.103002 
-0.089439 1.74945 -0.351992 -0.187011 0.979974 -0.0683897 
-0.090025 1.74919 -0.328819 0.438958 0.892965 0.0996459 
-0.092124 1.74919 -0.307481 0.456442 0.889666 0.0124411 
-0.090025 1.74919 -0.286143 0.458155 0.88544 -0.078037 
-0.083808 1.74919 -0.265625 0.443117 0.880355 -0.169181 
-0.073712 1.74919 -0.246716 0.410572 0.874604 -0.257873 
-0.060126 1.74919 -0.230142 0.360263 0.868527 -0.3404 
-0.04357 1.74919 -0.21654 0.292863 0.862586 -0.412524 
-0.024682 1.74919 -0.206432 0.210226 0.857429 -0.469703 
-0.004188 1.74919 -0.200208 0.115732 0.853753 -0.507653 
0.017126 1.74919 -0.198107 0.0143525 0.852005 -0.523337 
0.038439 1.74919 -0.200208 -0.0880875 0.852472 -0.515299 
0.058934 1.74919 -0.206432 -0.185575 0.85508 -0.484149 
0.077822 1.74919 -0.21654 -0.272689 0.859458 -0.432404 
0.094377 1.74919 -0.230142 -0.345386 0.864963 -0.364069 
0.107964 1.74919 -0.246716 -0.401192 0.870968 -0.283655 
0.11806 1.74919 -0.265625 -0.439026 0.876909 -0.195668 
0.124277 1.74919 -0.286143 -0.458906 0.882357 -0.104171 
0.126376 1.74919 -0.307481 -0.461487 0.887058 -0.0125721 
0.124277 1.74919 -0.328819 -0.447861 0.890844 0.0762778 
0.11806 1.74919 -0.349336 -0.419079 0.89374 0.160006 
0.107964 1.74919 -0.368246 -0.376396 0.895789 0.236407 
0.094377 1.74919 -0.38482 -0.321086 0.897141 0.303383 
0.077822 1.74919 -0.398422 -0.254757 0.897954 0.358857 
0.058934 1.74919 -0.408529 -0.179397 0.898406 0.400853 
0.038439 1.74919 -0.414753 -0.0975301 0.898605 0.427781 
0.017126 1.74919 -0.416855 -0.0120222 0.898714 0.438371 
-0.004188 1.74919 -0.414753 0.073886 0.898758 0.432175 
-0.024682 1.74919 -0.408529 0.156963 0.898699 0.409515 
-0.04357 1.74919 -0.398422 0.23417 0.898475 0.371357 
-0.060126 1.74919 -0.38482 0.302881 0.897963 0.319257 
-0.073712 1.74919 -0.368246 0.360988 0.896968 0.255218 
-0.083808 1.74919 -0.349336 0.406779 0.895357 0.181294 
-0.090083 1.7463 -0.328568 0.974143 0.000147797 0.22593 
-0.092184 1.7463 -0.307152 0.999472 0.000122886 0.0324772 
-0.090083 1.7463 -0.285736 0.986762 6.60871e-05 -0.162175 
-0.083861 1.7463 -0.265142 0.936465 -1.90058e-05 -0.350762 
-0.073758 1.7463 -0.246164 0.850356 -0.000123625 -0.526208 
-0.060161 1.7463 -0.229529 0.731554 -0.000236942 -0.681783 
-0.043594 1.7463 -0.215877 0.584392 -0.000345307 -0.811471 
-0.024692 1.7463 -0.205732 0.414413 -0.000434943 -0.910089 
-0.004182 1.7463 -0.199485 0.228153 -0.000496353 -0.973625 
0.017147 1.7463 -0.197376 0.0328737 -0.000521512 -0.999459 
0.038477 1.7463 -0.199485 -0.163705 -0.00050691 -0.986509 
0.058987 1.7463 -0.205732 -0.353839 -0.000455239 -0.935306 
0.077888 1.7463 -0.215877 -0.530019 -0.00037436 -0.847985 
0.094456 1.7463 -0.229529 -0.685443 -0.000274536 -0.728127 
0.108053 1.7463 -0.246164 -0.814254 -0.000167926 -0.580508 
0.118156 1.7463 -0.265142 -0.911672 -6.76303e-05 -0.410919 
0.124378 1.7463 -0.285736 -0.974143 1.4188e-05 -0.22593 
0.126478 1.7463 -0.307152 -0.999472 6.98966e-05 -0.0324768 
0.124378 1.7463 -0.328568 -0.986764 9.60392e-05 0.162165 
0.118156 1.7463 -0.349161 -0.936461 9.3321e-05 0.350771 
0.108053 1.7463 -0.36814 -0.850363 6.63312e-05 0.526196 
0.094456 1.7463 -0.384775 -0.731539 2.40782e-05 0.6818 
0.077888 1.7463 -0.398427 -0.584392 -2.35599e-05 0.811471 
0.058987 1.7463 -0.408571 -0.414412 -6.57181e-05 0.910089 
0.038477 1.7463 -0.414818 -0.228131 -9.23784e-05 0.97363 
0.017147 1.7463 -0.416927 -0.0328744 -9.84955e-05 0.999459 
-0.004182 1.7463 -0.414818 0.163706 -8.21123e-05 0.986509 
-0.024692 1.7463 -0.408571 0.353811 -4.52875e-05 0.935317 
-0.043594 1.7463 -0.398427 0.530001 5.73716e-06 0.847997 
-0.060161 1.7463 -0.384775 0.685459 6.14246e-05 0.728111 
-0.073758 1.7463 -0.36814 0.814267 0.000110378 0.580491 
-0.083861 1.7463 -0.349161 0.911663 0.000141926 0.410938 
-0.089822 0.193527 -0.328584 0.986672 0.0028123 0.162696 
-0.091918 0.193527 -0.307152 0.999492 0.00282684 -0.0317597 
-0.089822 0.193527 -0.285719 0.974349 0.00281174 -0.225025 
-0.083614 0.193527 -0.26511 0.912111 0.00276913 -0.409933 
-0.073532 0.193527 -0.246116 0.814963 0.00270475 -0.579506 
-0.059965 0.193527 -0.229468 0.686376 0.00262783 -0.727242 
-0.043433 0.193527 -0.215806 0.531053 0.00255057 -0.847335 
-0.024571 0.193527 -0.205654 0.354894 0.00248295 -0.934903 
-0.004106 0.193527 -0.199402 0.164685 0.00243531 -0.986343 
0.017178 0.193527 -0.197291 -0.0320704 0.00241422 -0.999483 
0.038461 0.193527 -0.199402 -0.227569 0.00242207 -0.973759 
0.058927 0.193527 -0.205654 -0.414034 0.00245622 -0.910258 
0.077788 0.193527 -0.215806 -0.584127 0.00251149 -0.811659 
0.09432 0.193527 -0.229468 -0.73136 0.00257862 -0.681987 
0.107888 0.193527 -0.246116 -0.85021 0.00264717 -0.526437 
0.117969 0.193527 -0.26511 -0.936327 0.00270525 -0.35112 
0.124178 0.193527 -0.285719 -0.986672 0.00274379 -0.162696 
0.126274 0.193527 -0.307152 -0.999492 0.00275746 0.0317446 
0.124178 0.193527 -0.328584 -0.974345 0.0027441 0.225043 
0.117969 0.193527 -0.349194 -0.912114 0.00270548 0.409928 
0.107888 0.193527 -0.368187 -0.814959 0.00264747 0.579513 
0.09432 0.193527 -0.384835 -0.686369 0.0025792 0.727249 
0.077788 0.193527 -0.398498 -0.531067 0.00251197 0.847326 
0.058927 0.193527 -0.40865 -0.35488 0.00245671 0.934909 
0.038461 0.193527 -0.414901 -0.164668 0.00242212 0.986346 
0.017178 0.193527 -0.417012 0.0320709 0.00241413 0.999483 
-0.004106 0.193527 -0.414901 0.227555 0.00243551 0.973762 
-0.024571 0.193527 -0.40865 0.414002 0.00248311 0.910272 
-0.043433 0.193527 -0.398498 0.584137 0.0025506 0.811651 
-0.059965 0.193527 -0.384835 0.731375 0.00262822 0.681971 
-0.073532 0.193527 -0.368187 0.85021 0.00270479 0.526436 
-0.083614 0.193527 -0.349194 0.936324 0.00276923 0.351125 
-0.08566 0.171046 -0.327816 0.950613 0.249118 0.185138 
-0.087676 0.171046 -0.307152 0.968369 0.249514 -0.00207957 
-0.08566 0.171046 -0.286487 0.949818 0.249103 -0.189192 
-0.079692 0.171046 -0.266617 0.895518 0.247951 -0.369551 
-0.07 0.171046 -0.248305 0.807177 0.246224 -0.536506 
-0.056958 0.171046 -0.232253 0.68763 0.244175 -0.683771 
-0.041065 0.171046 -0.219081 0.541015 0.242083 -0.805418 
-0.022933 0.171046 -0.209292 0.372732 0.24026 -0.896296 
-0.003258 0.171046 -0.203265 0.189233 0.238988 -0.952405 
0.017202 0.171046 -0.20123 -0.00203035 0.238414 -0.971161 
0.037663 0.171046 -0.203265 -0.193235 0.238611 -0.951696 
0.057337 0.171046 -0.209292 -0.376553 0.239542 -0.89489 
0.075469 0.171046 -0.219081 -0.544548 0.241022 -0.803353 
0.091362 0.171046 -0.232253 -0.690756 0.242826 -0.681096 
0.104405 0.171046 -0.248305 -0.809787 0.24464 -0.533287 
0.114096 0.171046 -0.266617 -0.897511 0.246157 -0.365896 
0.120065 0.171046 -0.286487 -0.951102 0.247173 -0.18523 
0.12208 0.171046 -0.307152 -0.968877 0.247533 0.00208077 
0.120065 0.171046 -0.327816 -0.950306 0.247153 0.1893 
0.114096 0.171046 -0.347686 -0.895959 0.246101 0.369719 
0.104405 0.171046 -0.365999 -0.807522 0.24456 0.536748 
0.091362 0.171046 -0.38205 -0.687884 0.242749 0.684024 
0.075469 0.171046 -0.395223 -0.541174 0.240965 0.805647 
0.057337 0.171046 -0.405011 -0.372779 0.239501 0.896479 
0.037663 0.171046 -0.411038 -0.189277 0.238575 0.9525 
0.017202 0.171046 -0.413074 0.00203057 0.238398 0.971165 
-0.003258 0.171046 -0.411038 0.193224 0.239004 0.9516 
-0.022933 0.171046 -0.405011 0.376463 0.240322 0.894719 
-0.041065 0.171046 -0.395223 0.544394 0.242162 0.803114 
-0.056958 0.171046 -0.38205 0.690509 0.244249 0.680838 
-0.07 0.171046 -0.365999 0.809432 0.246304 0.533061 
-0.079692 0.171046 -0.347686 0.897079 0.24801 0.365706 
-0.078526 0.149058 -0.326444 0.913609 0.366881 0.175263 
-0.080401 0.149058 -0.307152 0.930159 0.367135 -0.00409006 
-0.078526 0.149058 -0.287859 0.912049 0.366839 -0.183294 
-0.07297 0.149058 -0.269309 0.859784 0.366038 -0.356072 
-0.063948 0.149058 -0.252212 0.774916 0.364831 -0.516142 
-0.051807 0.149058 -0.237227 0.660033 0.363419 -0.657482 
-0.037013 0.149058 -0.224929 0.519056 0.36195 -0.774321 
-0.020134 0.149058 -0.21579 0.357009 0.360674 -0.86166 
-0.00182 0.149058 -0.210163 0.180227 0.359743 -0.91548 
0.017226 0.149058 -0.208263 -0.00411739 0.359304 -0.933211 
0.036273 0.149058 -0.210163 -0.188313 0.359404 -0.913984 
0.054587 0.149058 -0.21579 -0.364701 0.360001 -0.858715 
0.071466 0.149058 -0.224928 -0.526058 0.360972 -0.77004 
0.08626 0.149058 -0.237227 -0.66617 0.362163 -0.651962 
0.098401 0.149058 -0.252212 -0.779911 0.363343 -0.509628 
0.107423 0.149058 -0.269309 -0.863494 0.364347 -0.348754 
0.112979 0.149058 -0.287859 -0.914321 0.365043 -0.175388 
0.114854 0.149058 -0.307152 -0.930893 0.36527 0.00409244 
0.112979 0.149058 -0.326444 -0.912755 0.365005 0.183437 
0.107423 0.149058 -0.344995 -0.860417 0.3643 0.356326 
0.098401 0.149058 -0.362091 -0.775417 0.363273 0.51649 
0.08626 0.149058 -0.377077 -0.660422 0.362067 0.657837 
0.071466 0.149058 -0.389375 -0.51926 0.360902 0.774674 
0.054587 0.149058 -0.398513 -0.357129 0.359934 0.86192 
0.036273 0.149058 -0.404141 -0.180268 0.359371 0.915618 
0.017227 0.149058 -0.406041 0.00412589 0.359322 0.933205 
-0.00182 0.149058 -0.404141 0.188296 0.359785 0.913838 
-0.020134 0.149058 -0.398513 0.364591 0.360734 0.858455 
-0.037013 0.149058 -0.389375 0.525829 0.362035 0.769698 
-0.051807 0.149058 -0.377077 0.665794 0.363505 0.6516 
-0.063948 0.149058 -0.362091 0.779397 0.364915 0.50929 
-0.07297 0.149058 -0.344995 0.862863 0.36609 0.348491 
-0.069382 0.129209 -0.324658 0.84206 0.515115 0.159972 
-0.07108 0.129209 -0.307152 0.857406 0.514616 -0.00502567 
-0.069382 0.129209 -0.289646 0.840368 0.514697 -0.169908 
-0.064356 0.129209 -0.272812 0.791494 0.515317 -0.328613 
-0.056193 0.129209 -0.257298 0.71235 0.516413 -0.475264 
-0.045208 0.129209 -0.243701 0.605686 0.517783 -0.60419 
-0.031823 0.129209 -0.232541 0.475292 0.519225 -0.710284 
-0.016552 0.129209 -0.224249 0.326039 0.520501 -0.789162 
1.8e-05 0.129209 -0.219142 0.163728 0.521394 -0.837461 
0.017251 0.129209 -0.217418 -0.00518105 0.521756 -0.853079 
0.034483 0.129209 -0.219142 -0.17385 0.521508 -0.835348 
0.051053 0.129209 -0.224249 -0.335501 0.520664 -0.785078 
0.066325 0.129209 -0.232541 -0.483743 0.519347 -0.704465 
0.07971 0.129209 -0.243701 -0.612874 0.51773 -0.596943 
0.090695 0.129209 -0.257298 -0.718113 0.516066 -0.466894 
0.098858 0.129209 -0.272812 -0.795713 0.514599 -0.31942 
0.103884 0.129209 -0.289646 -0.843001 0.513528 -0.16012 
0.105581 0.129209 -0.307152 -0.858383 0.512986 0.00502359 
0.103884 0.129209 -0.324658 -0.841309 0.513097 0.170091 
0.098858 0.129209 -0.341491 -0.792324 0.513816 0.328963 
0.090695 0.129209 -0.357005 -0.713042 0.51505 0.475704 
0.07971 0.129209 -0.370603 -0.606171 0.51664 0.604682 
0.066325 0.129209 -0.381762 -0.475588 0.518331 0.710739 
0.051054 0.129209 -0.390055 -0.32618 0.519894 0.789504 
0.034483 0.129209 -0.395161 -0.163747 0.521104 0.837638 
0.017251 0.129209 -0.396885 0.0051809 0.52178 0.853065 
1.8e-05 0.129209 -0.395161 0.1738 0.521835 0.835154 
-0.016552 0.129209 -0.390055 0.335354 0.521294 0.784724 
-0.031823 0.129209 -0.381762 0.483433 0.520263 0.704002 
-0.045208 0.129209 -0.370603 0.612371 0.518897 0.596445 
-0.056193 0.129209 -0.357005 0.717423 0.517428 0.466446 
-0.064356 0.129209 -0.341491 0.794869 0.516112 0.319081 
-0.056086 0.111334 -0.32189 0.739302 0.659047 0.138164 
-0.057523 0.111334 -0.307152 0.752493 0.65856 -0.0072447 
-0.056086 0.111334 -0.292414 0.736394 0.659184 -0.152316 
-0.051829 0.111334 -0.278242 0.691658 0.660848 -0.291357 
-0.044917 0.111334 -0.265182 0.62022 0.663259 -0.418824 
-0.035615 0.111334 -0.253734 0.525033 0.666049 -0.529829 
-0.02428 0.111334 -0.244339 0.409932 0.668788 -0.620224 
-0.011349 0.111334 -0.237358 0.27948 0.671036 -0.686733 
0.002683 0.111334 -0.233059 0.138591 0.672466 -0.727037 
0.017275 0.111334 -0.231608 -0.0073947 0.672832 -0.739758 
0.031868 0.111334 -0.233059 -0.153171 0.672083 -0.72446 
0.045899 0.111334 -0.237358 -0.293323 0.670309 -0.68165 
0.058831 0.111334 -0.244339 -0.42263 0.667764 -0.61276 
0.070166 0.111334 -0.253734 -0.536109 0.664804 -0.520214 
0.079468 0.111334 -0.265182 -0.629282 0.661875 -0.40734 
0.08638 0.111334 -0.278242 -0.698344 0.659412 -0.278374 
0.090636 0.111334 -0.292414 -0.740389 0.657788 -0.138345 
0.092074 0.111334 -0.307152 -0.753621 0.657269 0.00723857 
0.090636 0.111334 -0.32189 -0.737463 0.657934 0.15255 
0.08638 0.111334 -0.336061 -0.692623 0.659666 0.291743 
0.079468 0.111334 -0.349122 -0.620993 0.66221 0.41934 
0.070166 0.111334 -0.360569 -0.52557 0.665173 0.530397 
0.058831 0.111334 -0.369964 -0.410277 0.668101 0.620737 
0.045899 0.111334 -0.376945 -0.279616 0.670575 0.687128 
0.031868 0.111334 -0.381244 -0.138632 0.672234 0.727243 
0.017275 0.111334 -0.382695 0.00739461 0.67284 0.739751 
0.002683 0.111334 -0.381244 0.153113 0.672338 0.724237 
-0.011349 0.111334 -0.376945 0.29316 0.6708 0.681238 
-0.02428 0.111334 -0.369964 0.422275 0.668461 0.612245 
-0.035615 0.111334 -0.360569 0.535536 0.665701 0.519657 
-0.044917 0.111334 -0.349122 0.628494 0.662936 0.40683 
-0.051829 0.111334 -0.336061 0.697371 0.660595 0.278007 
-0.041392 0.096928 -0.318874 0.580795 0.807078 0.106311 
-0.042541 0.096928 -0.307152 0.590668 0.80687 -0.00846455 
-0.041392 0.096928 -0.29543 0.577375 0.807173 -0.122924 
-0.037986 0.096928 -0.284158 0.541531 0.807925 -0.232382 
-0.032456 0.096928 -0.27377 0.484725 0.809011 -0.332481 
-0.025014 0.096928 -0.264665 0.409393 0.810259 -0.419378 
-0.015946 0.096928 -0.257193 0.318689 0.811469 -0.489853 
-0.005601 0.096928 -0.25164 0.216171 0.812453 -0.541471 
0.005625 0.096928 -0.248221 0.105739 0.813059 -0.572498 
0.0173 0.096928 -0.247066 -0.00852851 0.813184 -0.581944 
0.028974 0.096928 -0.248221 -0.122547 0.812816 -0.569484 
0.0402 0.096928 -0.25164 -0.232159 0.811983 -0.535524 
0.050546 0.096928 -0.257193 -0.333331 0.81081 -0.481121 
0.059614 0.096928 -0.264665 -0.422178 0.809459 -0.408096 
0.067056 0.096928 -0.27377 -0.495141 0.808127 -0.319009 
0.072586 0.096928 -0.284158 -0.549156 0.807016 -0.217148 
0.075991 0.096928 -0.29543 -0.581849 0.806291 -0.106519 
0.077141 0.096928 -0.307152 -0.591749 0.806077 0.00849673 
0.075991 0.096928 -0.318874 -0.578421 0.806391 0.123137 
0.072586 0.096928 -0.330145 -0.542448 0.807199 0.232766 
0.067056 0.096928 -0.340533 -0.485447 0.808369 0.332987 
0.059614 0.096928 -0.349638 -0.409926 0.809716 0.419906 
0.050546 0.096928 -0.357111 -0.319 0.811046 0.490351 
0.0402 0.096928 -0.362663 -0.216299 0.81217 0.541844 
0.028974 0.096928 -0.366082 -0.105778 0.812914 0.572696 
0.0173 0.096928 -0.367237 0.00852841 0.813194 0.581931 
0.005625 0.096928 -0.366082 0.122498 0.81297 0.569275 
-0.005601 0.096928 -0.362663 0.231985 0.812284 0.535142 
-0.015946 0.096928 -0.357111 0.332997 0.811244 0.480621 
-0.025014 0.096928 -0.349638 0.421629 0.810016 0.407558 
-0.032456 0.096928 -0.340533 0.494387 0.808782 0.318517 
-0.037986 0.096928 -0.330145 0.548218 0.807742 0.216817 
-0.021539 0.086321 -0.314868 0.391109 0.917868 0.0674686 
-0.022301 0.086321 -0.307152 0.395401 0.918453 -0.0101189 
-0.021539 0.086321 -0.299435 0.384159 0.919183 -0.0867417 
-0.019285 0.086321 -0.292015 0.358058 0.920017 -0.159259 
-0.015623 0.086321 -0.285176 0.318401 0.92089 -0.224904 
-0.010695 0.086321 -0.279182 0.26701 0.921733 -0.281271 
-0.00469 0.086321 -0.274263 0.206073 0.922472 -0.326465 
0.00216 0.086321 -0.270608 0.137935 0.923042 -0.35912 
0.009594 0.086321 -0.268357 0.0651167 0.923393 -0.378293 
0.017324 0.086321 -0.267597 -0.00989652 0.923493 -0.383488 
0.025055 0.086321 -0.268357 -0.0845587 0.92333 -0.374583 
0.032488 0.086321 -0.270608 -0.156373 0.922922 -0.351798 
0.039338 0.086321 -0.274263 -0.22282 0.922301 -0.315771 
0.045343 0.086321 -0.279182 -0.281463 0.921526 -0.267524 
0.050271 0.086321 -0.285176 -0.329982 0.920659 -0.208567 
0.053933 0.086321 -0.292015 -0.366277 0.919774 -0.140916 
0.056188 0.086321 -0.299435 -0.388642 0.918946 -0.0670528 
0.056949 0.086321 -0.307152 -0.395917 0.91823 0.010143 
0.056188 0.086321 -0.314868 -0.387582 0.917672 0.0875052 
0.053933 0.086321 -0.322289 -0.363855 0.917285 0.161856 
0.050271 0.086321 -0.329127 -0.32569 0.91706 0.23006 
0.045343 0.086321 -0.335121 -0.274696 0.916965 0.289341 
0.039339 0.086321 -0.34004 -0.212949 0.916965 0.337385 
0.032488 0.086321 -0.343695 -0.14302 0.917005 0.372355 
0.025055 0.086321 -0.345946 -0.0676468 0.917054 0.392983 
0.017324 0.086321 -0.346706 0.0102855 0.917078 0.398574 
0.009594 0.086321 -0.345946 0.0877967 0.917073 0.388933 
0.00216 0.086321 -0.343695 0.161964 0.917049 0.364403 
-0.00469 0.086321 -0.34004 0.229949 0.917028 0.325858 
-0.010695 0.086321 -0.335121 0.289027 0.917058 0.274714 
-0.015623 0.086321 -0.329127 0.336821 0.917183 0.2129 
-0.019285 0.086321 -0.322289 0.371323 0.917449 0.142854 
-0.003394 0.081 -0.312296 0.205998 0.978013 0.0324775 
-0.0038 0.081 -0.308225 0.206078 0.978498 -0.00860387 
-0.003394 0.081 -0.304155 0.198141 0.978977 -0.0484149 
-0.00219 0.081 -0.30024 0.182773 0.979434 -0.0854623 
-0.000236 0.081 -0.296633 0.160859 0.979847 -0.11842 
0.002394 0.081 -0.293471 0.13345 0.980201 -0.146275 
0.005599 0.081 -0.290876 0.101692 0.980486 -0.168246 
0.009255 0.081 -0.288948 0.0667485 0.980686 -0.183847 
0.013223 0.081 -0.287761 0.0297946 0.980801 -0.192723 
0.017349 0.081 -0.28736 -0.00804494 0.980821 -0.194746 
0.021474 0.081 -0.287761 -0.0456572 0.980751 -0.189852 
0.025442 0.081 -0.288948 -0.0819068 0.980591 -0.178138 
0.029098 0.081 -0.290876 -0.115674 0.980344 -0.159831 
0.032303 0.081 -0.293471 -0.145762 0.980023 -0.135307 
0.034933 0.081 -0.296633 -0.171024 0.979635 -0.105198 
0.036887 0.081 -0.30024 -0.190308 0.9792 -0.0703606 
0.038091 0.081 -0.304155 -0.202655 0.978729 -0.0319368 
0.038497 0.081 -0.308225 -0.207269 0.978246 0.00864271 
0.038091 0.081 -0.312296 -0.203682 0.977771 0.049777 
0.036887 0.081 -0.31621 -0.191827 0.977321 0.0897024 
0.034933 0.081 -0.319818 -0.172031 0.976918 0.126633 
0.032303 0.081 -0.32298 -0.145033 0.976575 0.158957 
0.029098 0.081 -0.325575 -0.111939 0.976302 0.185212 
0.025442 0.081 -0.327503 -0.0741547 0.976109 0.204234 
0.021474 0.081 -0.32869 -0.0332682 0.976002 0.215206 
0.017349 0.081 -0.329091 0.00899209 0.975981 0.217671 
0.013223 0.081 -0.32869 0.0508652 0.976046 0.211533 
0.009255 0.081 -0.327503 0.0905997 0.976198 0.197049 
0.005599 0.081 -0.325575 0.12654 0.976431 0.174845 
0.002394 0.081 -0.32298 0.157146 0.976742 0.145875 
-0.000236 0.081 -0.319818 0.181163 0.97712 0.111431 
-0.00219 0.081 -0.31621 0.197638 0.977549 0.0730546 
